<svg xmlns="http://www.w3.org/2000/svg" version="1.1" xmlns:xlink="http://www.w3.org/1999/xlink" xmlns:svgjs="http://svgjs.dev/svgjs" width="1440" height="2000" preserveAspectRatio="none" viewBox="0 0 1440 2000"><g mask="url(&quot;#SvgjsMask2030&quot;)" fill="none"><rect width="1440" height="2000" x="0" y="0" fill="url(&quot;#SvgjsLinearGradient2031&quot;)"></rect><circle r="18.19" cx="1435.1200000000001" cy="999.74" filter="url(#SvgjsFilter2032)" fill="rgba(51, 121, 194, 0.58)"></circle><circle r="21.945" cx="612.725" cy="1134.3049999999998" filter="url(#SvgjsFilter2032)" fill="rgba(51, 121, 194, 0.58)"></circle><circle r="17.835" cx="1057.775" cy="1345.535" filter="url(#SvgjsFilter2032)" fill="rgba(51, 121, 194, 0.58)"></circle><circle r="13.785" cx="1159.015" cy="577.395" filter="url(#SvgjsFilter2032)" fill="rgba(167, 43, 183, 1)"></circle><circle r="17.48" cx="1218.75" cy="1466.79" filter="url(#SvgjsFilter2032)" fill="rgba(51, 121, 194, 0.58)"></circle><circle r="16.245" cx="285.315" cy="1650.135" filter="url(#SvgjsFilter2032)" fill="rgba(51, 121, 194, 0.58)"></circle><circle r="23.63" cx="55.18" cy="1700.42" filter="url(#SvgjsFilter2032)" fill="rgba(51, 121, 194, 0.58)"></circle><circle r="17.82" cx="518.19" cy="417.84" filter="url(#SvgjsFilter2032)" fill="rgba(167, 43, 183, 1)"></circle><circle r="23.21" cx="971.49" cy="1111.5900000000001" filter="url(#SvgjsFilter2032)" fill="rgba(167, 43, 183, 1)"></circle><circle r="15.99" cx="910.72" cy="559.42" filter="url(#SvgjsFilter2032)" fill="rgba(51, 121, 194, 0.58)"></circle><circle r="14.615" cx="379.165" cy="1391.575" filter="url(#SvgjsFilter2032)" fill="rgba(167, 43, 183, 1)"></circle><circle r="12.75" cx="664.32" cy="616.89" filter="url(#SvgjsFilter2032)" fill="rgba(167, 43, 183, 1)"></circle><circle r="15.95" cx="542.7800000000001" cy="703.8100000000001" filter="url(#SvgjsFilter2032)" fill="rgba(167, 43, 183, 1)"></circle><circle r="16.56" cx="1241.52" cy="1082.49" filter="url(#SvgjsFilter2032)" fill="rgba(167, 43, 183, 1)"></circle><circle r="15.91" cx="108.71" cy="1858.78" filter="url(#SvgjsFilter2032)" fill="rgba(51, 121, 194, 0.58)"></circle><circle r="12.175" cx="1223.965" cy="521.285" filter="url(#SvgjsFilter2032)" fill="rgba(167, 43, 183, 1)"></circle><circle r="15.455" cx="780.995" cy="1202.965" filter="url(#SvgjsFilter2032)" fill="rgba(51, 121, 194, 0.58)"></circle><circle r="20.43" cx="415.26" cy="673.38" filter="url(#SvgjsFilter2032)" fill="rgba(167, 43, 183, 1)"></circle><circle r="13.12" cx="478.4" cy="618.1" filter="url(#SvgjsFilter2032)" fill="rgba(167, 43, 183, 1)"></circle><circle r="17.75" cx="843.74" cy="1825.34" filter="url(#SvgjsFilter2032)" fill="rgba(51, 121, 194, 0.58)"></circle><path d="M1220.7 1737.2L1149.9 1733.2 1133 1713.5 1156.9 1715C1159.5 1715.8 1161.1 1713.6 1162 1711 1161.7 1709.1 1159.7 1706.5 1157.8 1706.8L1124.9 1704.3 1107.8 1685.4 1132.8 1680.6 1160.3 1699.2C1160.3 1699.2 1161.2 1699.5 1161.2 1699.5 1162.8 1700.1 1165.1 1698.9 1166.5 1697.5 1167.3 1695 1167.1 1693 1164.8 1691.3L1144.9 1678.1 1169.9 1673.4 1229.2 1711.9C1229.2 1711.9 1229.7 1713 1229.7 1713 1231.4 1713.6 1233.7 1712.5 1235.1 1711.1 1236.8 1708.8 1235.9 1705.7 1233.4 1704.9L1182 1670.8 1212.3 1664.1 1235.4 1679.3C1235.4 1679.3 1235.4 1679.3 1236.2 1679.6 1237.9 1680.2 1239.9 1679.9 1241.3 1678.5 1242.1 1675.9 1242.1 1673.1 1239.9 1671.4L1224.4 1661.6 1246.6 1656.8C1249.4 1656.8 1250.3 1654.3 1250 1652.3 1250 1649.5 1247.8 1647.8 1244.7 1648.7L1222.7 1652.6 1233.2 1638.3C1234 1635.7 1234 1632.9 1231.5 1632.1 1229.2 1630.4 1227.3 1630.7 1225.6 1632.9L1210.4 1656 1180.3 1661.8 1214.6 1609.6C1216 1608.2 1215.2 1605.1 1212.9 1603.4 1211.3 1602.8 1208.4 1602.8 1206.8 1605.1L1168.2 1664.4 1143.2 1669.1 1156.4 1649.2C1158.1 1646.9 1157 1644.7 1154.7 1643 1153.3 1641.6 1150.2 1642.4 1148.8 1643.8L1131.1 1671.7 1105.8 1677.3 1114 1652.8 1143.2 1638.2C1145.5 1637.1 1146.3 1634.6 1145.2 1632.3 1144.9 1630.3 1141.5 1629.2 1139.3 1630.3L1117.9 1641 1126.1 1616.6 1189.9 1585.4C1192.1 1584.3 1193 1581.7 1191.9 1579.5 1190.7 1577.2 1188.2 1576.4 1186 1577.5L1130 1604.8 1139.6 1576.1 1164.3 1563.7C1166.6 1562.6 1167.4 1560.1 1166.3 1557.8 1165.2 1555.6 1162.7 1554.7 1160.4 1555.9L1143.8 1563.4 1150.9 1542.4C1151.7 1539.8 1150.6 1537.6 1148 1536.7 1145.5 1535.9 1143.3 1537 1142.4 1539.5L1135.4 1560.6 1127.5 1544.9C1126.4 1542.6 1123.9 1541.8 1121.6 1542.9S1118.5 1546.6 1119.6 1548.8L1131.4 1572.4 1121.6 1601.9 1094.1 1546.8C1092.9 1544.6 1090.4 1543.7 1088.2 1544.9 1085.9 1546 1085.1 1548.5 1086.2 1550.8L1117.6 1613.7 1109.5 1638.2 1098.8 1616.8C1097.7 1614.6 1095.2 1613.7 1092.9 1614.8 1090.7 1616 1089.8 1618.5 1090.9 1620.8L1105.5 1650 1097.6 1673.6 1081.4 1655 1083.1 1621.9C1082.8 1619.9 1080.8 1617.4 1078.8 1617.7 1076 1617.6 1074.6 1619.1 1073.8 1621.6L1072.4 1645.5 1056.1 1626.9 1060.1 1556.1C1060.1 1553.3 1058.6 1551.9 1056.1 1551 1053.3 1551 1051.6 1553.3 1051.1 1555L1047.1 1617.4 1026.9 1593.7 1028.3 1567C1029.1 1564.5 1026.9 1562.8 1024.3 1562 1022.4 1562.2 1019.9 1564.2 1019.8 1567L1018.7 1584.4 1003.5 1568.1C1002.4 1565.9 999.6 1565.9 997.1 1567.8 995.7 1569.3 995.7 1572.1 997.1 1573.5L1012 1590.6 993.7 1589.2C990.9 1589.2 989.2 1591.5 989.5 1593.4 988.6 1596 990 1597.4 991.7 1597.9 992.6 1598.2 992.6 1598.2 993.4 1598.5L1020.1 1599.9 1040.3 1623.5 978.8 1619.8C976.2 1619 974.6 1621.2 973.7 1623.8 974 1625.7 975.4 1627.1 977.1 1627.7 977.9 1628 977.9 1628 977.9 1628L1049.3 1633.1 1065.6 1651.7 1041.7 1650.2C1038.9 1650.2 1037.5 1651.6 1036.7 1654.2 1036.9 1656.1 1038.1 1658.4 1039.8 1658.9 1040.6 1659.2 1040.6 1659.2 1041.4 1659.5L1074.6 1661.2 1090.9 1679.8 1066.7 1684.8 1038.9 1667.1C1036.7 1665.4 1033.6 1666.3 1032.2 1667.7 1031.3 1670.2 1031.3 1673 1033.8 1673.8L1053.8 1687.1 1029.3 1693 969.5 1653.3C968.1 1651.9 965 1652.7 963.6 1654.1 962.7 1656.7 962.7 1659.5 965 1661.2L1016.4 1695.2 986.3 1701.1 964.1 1686.2C961.9 1684.5 958.8 1685.3 957.9 1687.8 956.5 1689.3 956.5 1692.1 958.8 1693.8L974.2 1703.6 952 1708.4C950.1 1708.6 948.4 1710.9 948.4 1713.7 948.9 1714.8 950.3 1716.2 952 1716.8 952 1716.8 952.9 1717.1 953.7 1717.4L975.9 1712.6 966.1 1728.1C964.7 1729.5 965.5 1732.5 966.9 1734 967.7 1734.2 967.7 1734.2 967.7 1734.2 970.3 1735.1 972.5 1734 973.1 1732.3L988 1710.1 1018.4 1703.3 984 1755.6C983.2 1758.1 983.5 1760.1 985.7 1761.8 985.7 1761.8 986.6 1762.1 986.6 1762.1 988.2 1762.6 990.2 1762.4 991.9 1760.1L1031.3 1701.1 1055.5 1696.1 1042.2 1716C1041.4 1718.5 1041.4 1721.4 1043.9 1722.2 1043.6 1723 1044.5 1723.3 1044.5 1723.3 1046.2 1723.9 1048.4 1722.8 1049.8 1721.4L1067.6 1693.5 1092.6 1688.8 1084.7 1712.4 1055.4 1727C1053.2 1728.1 1052.1 1731.5 1053.2 1733.7 1054.6 1735.1 1057.1 1736 1059.1 1735.7L1080.7 1724.2 1072.6 1748.6 1009.6 1780.1C1007.4 1781.2 1006.5 1783.7 1007.6 1786 1008.8 1788.2 1011.3 1789.1 1013.5 1788L1068.6 1760.4 1058.8 1789.9 1035.2 1801.7C1032.9 1802.9 1032.1 1805.4 1033.2 1807.6S1036.8 1810.7 1039.1 1809.6L1054.8 1801.8 1047.8 1822.8C1047 1825.4 1048.1 1827.6 1050.6 1828.5 1053.1 1829.3 1055.4 1828.2 1056.2 1825.6L1063.3 1804.6 1072 1820.6C1072.5 1821.7 1073.1 1822.8 1073.9 1823.1 1074.8 1823.4 1076.8 1823.1 1077.9 1822.6 1080.1 1821.4 1081 1818.9 1079.8 1816.7L1067.2 1792.8 1077.1 1763.3 1105.4 1818.6C1106 1819.8 1106.6 1820.9 1107.4 1821.2 1108.2 1821.5 1110.2 1821.2 1111.3 1820.6 1113.6 1819.5 1114.4 1817 1113.3 1814.7L1081 1751.5 1089.2 1727 1099.6 1749.2C1100.1 1750.3 1101.8 1750.9 1102.7 1751.2 1103.5 1751.5 1104.3 1751.7 1105.5 1751.2 1107.7 1750.1 1108.8 1746.7 1107.4 1745.3L1093.1 1715.2 1101 1691.6 1118.1 1710.4 1115.6 1743.3C1115.9 1745.3 1117 1747.5 1118.7 1748.1 1119.5 1748.4 1119.5 1748.4 1119.8 1747.5 1122.3 1748.4 1124.9 1746.4 1124.9 1743.6L1126.3 1719.7 1143.4 1738.6 1138.3 1810C1138.6 1811.9 1140 1813.3 1141.7 1813.9 1142.5 1814.2 1142.5 1814.2 1142.5 1814.2 1145.3 1814.2 1147.6 1813.1 1147.6 1810.2L1151.6 1747.8 1171.8 1771.5 1170.4 1798.2C1170.4 1801 1171.8 1802.4 1173.5 1802.9 1173.5 1802.9 1174.3 1803.2 1174.3 1803.2 1177.1 1803.2 1178.8 1801 1179.4 1799.3L1179.9 1780.7 1194.8 1797.9C1195.7 1798.2 1196.5 1798.5 1197.4 1798.7 1198.2 1799 1200.2 1798.7 1201.3 1798.2 1203 1795.9 1203.8 1793.4 1201.6 1791.7L1186.7 1774.6 1205 1776C1207.8 1776 1209.5 1773.7 1210 1772.1 1210 1769.2 1207.8 1767.6 1205.2 1766.7L1178.5 1765.3 1158 1742.5 1219.6 1746.2C1222.4 1746.2 1224.9 1744.2 1224.7 1742.3 1224.7 1739.5 1223.5 1737.2 1220.7 1737.2Z" fill="rgba(167, 43, 183, 1)"></path><path d="M213.4 601.9L213.9 539.8 230.4 524.2 230.2 545.2C229.6 547.4 231.6 548.8 233.8 549.4 235.6 549.1 237.7 547.3 237.4 545.6L238.2 516.7 254 501 259.2 522.6 244.1 547.5C244.1 547.5 243.9 548.2 243.9 548.2 243.5 549.7 244.5 551.6 245.8 552.8 248.1 553.4 249.8 553.1 251.2 551.1L261.9 533.1 267.1 554.8 235.9 608.2C235.9 608.2 234.9 608.7 234.9 608.7 234.5 610.2 235.6 612.1 236.9 613.3 238.9 614.7 241.6 613.8 242.2 611.6L269.8 565.2 276.9 591.5 264.6 612.3C264.6 612.3 264.6 612.3 264.4 613 264 614.5 264.3 616.2 265.6 617.4 267.9 618 270.3 617.9 271.7 615.9L279.7 601.9 284.7 621.2C284.9 623.6 287.1 624.2 288.8 623.9 291.3 623.8 292.7 621.8 291.8 619.1L287.4 600.1 300.4 608.6C302.6 609.2 305.1 609.1 305.7 606.9 307.1 604.8 306.8 603.1 304.8 601.8L284 589.4 277.6 563.4 324.7 591.2C326 592.4 328.7 591.5 330 589.5 330.5 588 330.3 585.5 328.3 584.1L274.9 552.9 269.7 531.3 287.7 542C289.7 543.4 291.6 542.3 293 540.3 294.2 539 293.3 536.3 292 535.1L267 520.8 261 498.9 282.7 505 296.7 530C297.8 531.9 300 532.5 301.9 531.5 303.7 531.1 304.5 528.1 303.4 526.2L293.2 508 314.9 514.1 344.8 568.6C345.9 570.5 348.1 571.1 350.1 570.1 352 569 352.6 566.8 351.5 564.8L325.4 517.1 350.8 524.2 362.7 545.3C363.8 547.3 366 547.9 367.9 546.8 369.8 545.7 370.5 543.5 369.4 541.6L362.1 527.4 380.8 532.7C383 533.3 385 532.2 385.6 530 386.2 527.7 385.1 525.8 382.9 525.2L364.2 519.9 377.6 512.4C379.5 511.3 380.2 509.1 379.1 507.1S375.8 504.6 373.9 505.7L353.7 517 327.5 509.6 374.5 483.2C376.4 482.2 377.1 479.9 376 478 374.9 476.1 372.7 475.4 370.8 476.5L317 506.6 295.3 500.5 313.5 490.3C315.5 489.2 316.1 487 315 485 313.9 483.1 311.7 482.5 309.8 483.6L284.8 497.5 263.9 491.6 279.4 476.6 308.5 476.7C310.2 476.4 312.3 474.6 312 472.9 311.9 470.4 310.6 469.3 308.3 468.6L287.4 468.4 302.9 453.4 365 453.9C367.5 453.8 368.6 452.5 369.3 450.2 369.2 447.8 367.1 446.4 365.6 446L310.9 445.1 330.7 426.4 354.1 426.6C356.4 427.2 357.8 425.2 358.4 422.9 358.1 421.2 356.2 419.1 353.8 419.2L338.5 418.9 352.1 405C354.1 403.9 353.9 401.5 352.1 399.3 350.8 398.2 348.4 398.3 347.2 399.6L332.8 413.3 333.3 397.3C333.2 394.8 331.1 393.4 329.4 393.8 327.2 393.1 326 394.4 325.6 395.9 325.4 396.7 325.4 396.7 325.2 397.4L325.1 420.8 305.2 439.5 305.9 385.5C306.5 383.3 304.5 381.9 302.3 381.2 300.6 381.6 299.4 382.9 299 384.4 298.7 385.1 298.7 385.1 298.7 385.1L297.3 447.7 281.7 462.7 282 441.8C281.8 439.3 280.6 438.2 278.3 437.5 276.6 437.9 274.7 438.9 274.3 440.4 274.1 441.2 274.1 441.2 273.8 441.9L273.7 471 258.2 486 252.8 465.1 267.1 440C268.5 438 267.6 435.3 266.3 434.2 264.1 433.5 261.6 433.6 261 435.9L250.3 453.9 244.1 432.7 276.3 378.8C277.5 377.5 276.6 374.8 275.3 373.7 273.1 373 270.6 373.1 269.2 375.2L241.6 421.5 235.2 395.5 247.3 375.5C248.7 373.4 247.8 370.8 245.6 370.1 244.3 369 241.9 369.1 240.5 371.1L232.5 385 227.4 365.8C227.1 364.1 225.1 362.7 222.6 362.8 221.6 363.4 220.5 364.7 220 366.2 220 366.2 219.8 366.9 219.6 367.7L224.7 386.9 210.8 378.9C209.5 377.7 206.8 378.6 205.7 379.9 205.5 380.6 205.5 380.6 205.5 380.6 204.8 382.9 205.9 384.8 207.4 385.2L227.4 397.3 234.6 423.6 187.5 395.8C185.2 395.1 183.5 395.5 182.1 397.5 182.1 397.5 181.9 398.2 181.9 398.2 181.5 399.7 181.8 401.4 183.9 402.8L237.1 434.8 242.5 455.7 224.5 445C222.3 444.4 219.8 444.5 219.2 446.7 218.4 446.5 218.2 447.3 218.2 447.3 217.8 448.8 218.9 450.7 220.1 451.8L245.2 466.2 250.4 487.8 229.4 481.9 215.5 457C214.4 455.1 211.4 454.2 209.5 455.3 208.3 456.6 207.7 458.8 208 460.5L219 479 197.2 472.9 167.1 419.1C166.1 417.2 163.8 416.6 161.9 417.6 160 418.7 159.3 421 160.4 422.9L186.8 469.9 160.6 462.5 149.3 442.4C148.2 440.5 146 439.8 144 440.9S141.5 444.2 142.6 446.1L150.1 459.6 131.4 454.3C129.1 453.7 127.2 454.7 126.6 457 125.9 459.2 127 461.1 129.3 461.8L148 467.1 134.3 475.3C133.4 475.9 132.4 476.4 132.2 477.2 132 477.9 132.3 479.6 132.9 480.6 133.9 482.5 136.2 483.1 138.1 482L158.5 470 184.7 477.4 137.4 504.5C136.5 505 135.5 505.6 135.3 506.3 135.1 507.1 135.4 508.8 135.9 509.7 137 511.6 139.3 512.3 141.2 511.2L195.1 480.3 216.8 486.5 197.9 496.5C196.9 497 196.5 498.5 196.3 499.3 196.1 500 195.9 500.8 196.4 501.7 197.5 503.6 200.5 504.5 201.6 503.2L227.3 489.4 248.3 495.3 232.5 511.1 203.7 510.2C202 510.6 200.1 511.6 199.6 513.1 199.4 513.9 199.4 513.9 200.2 514.1 199.5 516.3 201.4 518.5 203.8 518.4L224.8 518.6 209 534.4 146.4 532.9C144.7 533.2 143.5 534.5 143.1 536 142.9 536.7 142.9 536.7 142.9 536.7 143 539.2 144.1 541.1 146.5 541L201.2 541.9 181.4 560.5 158 560.4C155.6 560.5 154.4 561.8 154 563.3 154 563.3 153.8 564 153.8 564 153.9 566.5 155.9 567.9 157.4 568.3L173.7 568 159.3 581.8C159.1 582.5 158.9 583.3 158.7 584 158.4 584.8 158.8 586.5 159.3 587.4 161.3 588.8 163.6 589.4 165 587.4L179.3 573.7 178.9 589.7C179 592.2 181 593.5 182.5 594 185 593.8 186.3 591.8 187 589.6L187.1 566.2 206.2 547.3 205.5 601.3C205.6 603.7 207.4 605.8 209.2 605.5 211.6 605.4 213.5 604.3 213.4 601.9Z" fill="rgba(51, 121, 194, 0.58)"></path><path d="M384.5 1487.9L399.8 1515 381.1 1515.6C379.1 1515.5 377 1517.4 376.4 1520.1 377.1 1522.6 379 1524.6 381.4 1524L404.9 1524 417.8 1544.6 368.8 1544.4C366.4 1545.1 364.3 1547 364.2 1549 364.5 1552.2 366.3 1554.2 368.8 1553.6L422.9 1553.6 441.5 1585.6 399.2 1581 424.9 1615 387.9 1615.5 360 1569C360.4 1568.3 359.7 1567.8 358.9 1567.4 357.3 1566.5 355.4 1566.4 353.7 1567.5 352.1 1568.6 351.5 1571.4 352.2 1573.8L377.5 1615.7 353.2 1615.3 341.1 1595.1C340.8 1593.9 340 1593.5 339.3 1593.1 338.5 1592.6 336.5 1592.5 334.9 1593.6 333.2 1594.7 332.7 1597.5 333.8 1599.1L342.9 1615.5 311.8 1616.3C309 1615.8 307.7 1618.1 307.2 1620.9 307.1 1622.9 309 1624.9 312.2 1624.7L342.8 1624.7 333.6 1640.9C332.3 1643.3 333.7 1646.1 335.3 1647 337.6 1648.3 340 1647.6 341.4 1645.3L353.2 1624.4 377.4 1624.9 353.8 1666.7C352.5 1669 353.1 1671.4 355.5 1672.7 357 1673.6 360.2 1673.3 361.5 1671L387.8 1624.6 424.8 1624.1 400.4 1658.3 442 1653.3 423.7 1685.8 370.3 1686.2C367.1 1686.4 365.8 1688.8 365.7 1690.7 365.6 1692.7 367.5 1694.8 370.2 1695.4L418.8 1694.3 407 1715.2 383.1 1715.9C380.3 1715.4 378.3 1717.3 378.5 1720.5 378.4 1722.4 380.3 1724.5 383.5 1724.3L401.8 1724.4 386.4 1751.5C385.1 1753.8 385.8 1756.3 388.1 1757.6S392.9 1758.2 394.2 1755.9L409.5 1728.8 419 1744.4C420.5 1747.3 423.2 1747.8 424.9 1746.7 427.8 1745.3 428.3 1742.5 426.4 1740.4L414.8 1719.5 426.6 1698.7 450.7 1740.9C452.6 1743 455.3 1743.5 457 1742.4 459.8 1741 460.4 1738.2 458.5 1736.1L431.4 1690.1 449.8 1657.7 466.9 1696 483.6 1657.4 502.3 1689.4 476 1735.8C474.7 1738.2 476.1 1741 477.7 1741.9 480 1743.2 482.4 1742.5 483.7 1740.2L507.8 1697.7 520.3 1719 508.4 1739.9C507.1 1742.2 507.8 1744.6 510.1 1745.9 511.7 1746.8 514.9 1746.6 516.2 1744.3L525.4 1728 541.1 1754.3C542.6 1757.2 545.3 1757.7 547.4 1755.8 549.1 1754.7 550.4 1752.4 548.5 1750.3L533.2 1723.2 551.9 1722.6C553.9 1722.7 556 1720.8 556.1 1718.9 556.2 1716.9 555.1 1715.2 554.3 1714.8 553.5 1714.3 552.8 1713.9 551.6 1714.2L528.1 1714.2 515.2 1693.7 564.2 1693.8C566.6 1693.1 568.7 1691.2 568.8 1689.3 568.9 1687.3 567.8 1685.6 566.2 1684.7 565.4 1684.3 565.4 1684.3 564.2 1684.6L510.1 1684.6 491.4 1652.6 533.8 1657.2 508.1 1623.2 545.1 1622.8 573 1669.2C574.1 1670.8 576.4 1672.1 579.3 1670.7 580.9 1669.6 581.5 1666.8 580.8 1664.4L555.5 1622.5 579.7 1622.9 591.8 1643.1C592.5 1645.5 595.3 1646 598.1 1644.6 599.8 1643.5 600.3 1640.7 599.6 1638.3L590.1 1622.7 621.2 1621.9C623.9 1622.4 625.3 1620.1 625.8 1617.4 625.5 1616.1 624.4 1614.5 623.6 1614.1 622.8 1613.6 622 1613.2 620.8 1613.5L590.2 1613.5 599.4 1597.3C600.7 1595 599.2 1592.1 597.7 1591.2L597.7 1591.2C595.4 1589.9 592.9 1590.6 591.6 1592.9L579.8 1613.8 555.6 1613.3 579.2 1571.6C580.5 1569.2 579.8 1566.8 577.5 1565.5S572.8 1564.9 571.5 1567.2L545.2 1613.6 508.1 1614.1 532.6 1579.9 490.9 1584.9 509.3 1552.5 562.7 1552C565.9 1551.8 567.2 1549.5 567.3 1547.5 567.4 1545.5 565.5 1543.4 562.8 1542.9L514.6 1543.2 526 1523.1 549.9 1522.3C552.6 1522.8 554.7 1521 554.5 1517.8 554.6 1515.8 552.7 1513.7 550 1513.1L531.2 1513.8 546.5 1486.7C547.9 1484.4 547.2 1482 544.9 1480.6S540.1 1480 538.8 1482.3L523.5 1509.4 513.9 1493.8C513.6 1492.6 512.8 1492.1 512.1 1491.7 510.5 1490.8 509.3 1491.1 508.1 1491.5 505.2 1492.9 504.7 1495.7 506.6 1497.8L518.2 1518.7 506.4 1539.6 482.3 1497.3C481.5 1496.9 480.8 1496.4 480 1496 478.4 1495.1 477.2 1495.5 476 1495.8 473.2 1497.3 472.6 1500 474.5 1502.1L501.6 1548.1 483.2 1580.6 466.1 1542.3 449.4 1580.8 430.7 1548.8 457 1502.4C458.3 1500.1 456.8 1497.2 455.3 1496.3 453 1495 450.6 1495.7 449.2 1498L425.6 1539.8 412.7 1519.2 424.5 1498.3C425.9 1496 425.2 1493.6 422.9 1492.3S418.1 1491.6 416.8 1494L407.6 1510.2 391.8 1483.9C391.5 1482.7 390.7 1482.3 390 1481.8 389.2 1481.4 387.2 1481.3 385.6 1482.4 383.9 1483.5 382.6 1485.8 384.5 1487.9ZM466.2 1563.8L480.1 1595.1 514.1 1590.9 493.9 1619.3 514.5 1646.3 480.4 1643.3 466.8 1674.5 452.9 1643.1 418.9 1647.3 438.6 1619.7 418.5 1592 452.2 1595.7 466.2 1563.8Z" fill="rgba(51, 121, 194, 0.58)"></path><path d="M819.9 905.5L793 898.1 805.9 884.5C807.4 883.1 807.5 880.3 806 878 803.8 876.7 801 876.6 799.5 877.9L782.2 895.5 757.2 888.5 792.7 853C794.8 850.6 795 847.8 792.8 846.6 791.3 844.2 788.5 844.1 786.4 846.5L747.3 885.7 724.5 879.9 710.3 827.5 724.6 812.6 781.5 828.5C782.3 828.2 783.2 828 784 827.8 784.9 827.5 786.4 826.2 787 825.1 788 822.1 786.5 819.7 783.7 819.6L731.8 805.1 750 787.3 776.7 793.8C776.9 794.7 777.8 794.5 778.6 794.2 780.3 793.8 781.8 792.4 782.2 790.5 782.6 788.5 781 786.2 778.9 785L757.2 779.8 779.6 757.1C781.1 755.8 781.2 753 779.7 750.7 777.5 749.4 774.7 749.3 773.2 750.6L752.3 771.9 747.4 753.9C746.7 751.3 743.6 750.3 741.9 750.8 739.4 751.5 737.3 753.9 737.9 756.5L744.2 779.6 726.1 797.5 713 749.4C712.3 746.9 710.1 745.6 707.6 746.3 705 747 703.7 749.2 704.4 751.8L718.9 804.9 703.9 821 651.2 806.7 645.8 787 685.6 746.7C687.9 745.2 687.8 741.5 685.7 740.3 684.1 737.9 681.5 738.6 679.2 740.2L643.1 776.7 636.3 751.8 654.5 734C656 732.7 655.9 729 654.6 727.5S649.6 726.1 647.2 727.7L633.5 741.6 625.3 711.5C624.6 709 621.6 707.9 619 708.6 617.3 709.1 615.2 711.5 615.9 714.1L624.1 744.1 604.3 739.3C602.4 738.9 599.8 739.6 598.8 742.7 598.4 744.6 600.2 747.8 602.2 748.2L626.9 754.4 633.6 779.3 584 766.1C581.2 765.9 578.6 766.6 577.6 769.6 577.2 771.6 579 774.8 580.9 775.2L636.4 789.6 641.8 809.3 603.5 848.3 582.5 842 568 788.8C567.3 786.2 565.2 785 562.6 785.7 560 786.4 557.9 788.8 558.6 791.4L571.7 839.4 547 833.2 540.7 810.1C540 807.5 537.8 806.2 535.2 806.9 532.6 807.6 531.4 809.8 532.1 812.4L537 830.4 508.1 822.6C506.2 822.2 503 824 502.6 825.9 502.4 828.7 503.1 831.3 505.9 831.5L535.9 839.9 520.7 855.1C519.4 857.3 519.2 860.1 520.6 861.6 521.9 863.1 523.8 863.5 525.6 863 525.6 863 526.4 862.8 527 861.7L546.7 842.5 571.4 848.7 534 887.4C531.7 889 531.5 891.8 534 893.9 535 894.5 536.1 895.1 537.8 894.7 538.7 894.4 539.6 894.2 540.4 894L581.4 851.5 601.3 857.1 615.6 909.5 598.9 926 545.3 912C542.3 911 539.9 912.5 539.8 915.3 538.5 917.5 540.1 919.8 543.1 920.9L591.7 933.5 573.7 952.1 549.9 945.7C547.9 945.3 545.6 946.9 544.3 949.1 544.2 951.9 544.9 954.5 547.7 954.6L565.7 959.9 546.3 979.9C543.9 981.4 544.6 984 546.2 986.3 547.3 987 549.2 987.4 550.9 986.9 550.9 986.9 551.8 986.7 552.6 986.4L573.6 965.1 579.4 986.5C579.9 988.2 582.3 990.4 584.8 989.7 587.4 989 588.4 985.9 588 984.2L580.7 957.6 598.7 938.9 612.9 991.2C613.6 993.8 616.6 994.8 619.2 994.1S623 991.3 622.3 988.7L606.7 931.2 621.9 916 674.6 930.3 680.7 952.6 640.1 993.1C638.9 995.2 638.7 998 640.3 1000.4 641.4 1001 643.3 1001.4 645 1000.9 645.9 1000.7 646.7 1000.5 647.4 999.4L683.5 962.9 690.2 987.7 672.3 1006.4C670.8 1007.7 670.7 1010.6 672.2 1012.9 674.4 1014.1 677.2 1014.3 678.7 1013L693 998 700.5 1025.5C701 1027.2 704.2 1029.1 706 1028.6 708.5 1027.9 710.4 1024.6 709.9 1022.9L702.5 995.5 721.6 1001.3C722.4 1001.1 723.3 1000.9 724.1 1000.6 725.9 1000.2 727.3 998.8 728 997.7 728.1 994.9 726.6 992.6 724.4 991.3L699.7 985.2 692.9 960.3 742.6 973.5C745.6 974.5 748 973 748.3 971 749.4 968 747.8 965.6 745.6 964.4L690.1 950 684.1 927.7 722.3 888.7 743.1 894.1 758.7 951.6C759.4 954.2 761.6 955.4 764.2 954.7 766.8 954 768 951.9 767.3 949.3L753.1 897 778 904 785.3 930.6C785.7 932.3 789 934.2 791.6 933.5 794.1 932.8 795.2 929.7 794.7 928L788.9 906.6 817.7 914.4C818.6 914.2 818.6 914.2 819.4 913.9 821.1 913.5 822.6 912.2 823.2 911.1 823.4 908.3 821.8 905.9 819.9 905.5ZM681.3 917.4L676.8 921.4 671.8 920 629.1 908.5 624.1 907.1 622.7 902 611.3 860 609.9 854.8 613.5 851.1 644.6 819.6 648.2 815.9 654 817 695.9 828.7 701.7 829.9 703.1 835 714.5 877 715.9 882.2 711.5 886.2 681.3 917.4Z" fill="rgba(51, 121, 194, 0.58)"></path><path d="M644 1227.9L671.1 1230.7 662.1 1244.4C661 1245.7 661.3 1248.2 663 1250 665.1 1250.7 667.5 1250.4 668.3 1248.3L680.1 1231.6 701.3 1232.7 676.5 1267.7C675.8 1269.7 676.1 1272.2 677.4 1273.3 679.8 1274.7 682.3 1274.4 683 1272.3L710.4 1233.7 742.6 1236.5 718 1264.4 755.2 1263.2 736.9 1289.9 689.6 1286.4C689.3 1285.7 688.6 1286 687.9 1286.4 686.5 1287 685.4 1288.4 685.4 1290.1 685.3 1291.9 687 1293.7 689.1 1294.4L731.8 1297.5 719.3 1314.6 698.8 1313.1C697.7 1312.7 697 1313 696.3 1313.4 695.6 1313.7 694.6 1315.1 694.5 1316.8 694.5 1318.5 696.2 1320.3 697.9 1320.3L714.2 1322.1 699.1 1344.7C697.3 1346.4 698.3 1348.5 700 1350.3 701.4 1351.4 703.8 1351.1 705.3 1348.7L720.7 1326.8 727.7 1341.6C728.7 1343.7 731.5 1344.1 732.9 1343.4 735 1342.4 735.7 1340.4 734.7 1338.2L725.8 1319.3 738.3 1302.1 756.2 1340.1C757.2 1342.2 759.3 1343 761.4 1342 762.8 1341.3 764.3 1338.9 763.3 1336.8L743.4 1294.6 761.7 1267.9 773.8 1302.6 791.3 1270.3 805.2 1299.9 778.6 1338.2C777.1 1340.6 778.1 1342.7 779.5 1343.8 780.8 1344.9 783.3 1344.6 785.1 1342.9L808.8 1307.6 817.8 1326.6 806.3 1344.1C804.5 1345.8 804.8 1348.2 807.2 1349.7 808.5 1350.7 811 1350.4 812.4 1348L821.8 1335 833.4 1359.7C834.4 1361.8 836.4 1362.5 838.6 1361.5S841.4 1358.5 840.4 1356.3L828.8 1331.7 844.8 1332.8C847.6 1333.2 849.3 1331.5 849.4 1329.8 849.8 1327 848.1 1325.2 845.7 1325.5L824.8 1323.3 815.9 1304.3 858.2 1308.4C860.7 1308.1 862.5 1306.4 862.5 1304.7 862.9 1301.9 861.2 1300.1 858.8 1300.4L812.2 1296.6 798.3 1267 834.3 1274.1 815.2 1242.7 847.5 1245.5 867.4 1287.7C868.4 1289.8 871.2 1290.3 872.6 1289.6 874.7 1288.6 875.4 1286.5 874.4 1284.4L856.2 1245.7 877.7 1247.6 886.7 1266.6C887.7 1268.7 889.7 1269.5 891.9 1268.5 893.3 1267.8 894.7 1265.4 893.7 1263.3L886.8 1248.5 913.5 1250.5C916.3 1250.9 918 1249.2 917.8 1246.8 917.8 1245.1 916.8 1243 914.4 1243.2L887.3 1240.5 896.3 1226.8C897.4 1225.5 897.1 1223 895.7 1221.9 894.4 1220.9 892.6 1220.8 891.9 1221.2 891.2 1221.5 890.5 1221.8 890.1 1222.9L878.3 1239.6 857.1 1238.4 881.9 1203.5C882.6 1201.5 882.3 1199 881 1197.9 879.6 1196.9 877.9 1196.8 876.5 1197.5 875.7 1197.8 875.7 1197.8 875.4 1198.9L848 1237.5 815.7 1234.7 840.4 1206.7 803.1 1208 821.5 1181.3 868.7 1184.8C870.5 1184.8 872.6 1183.8 873 1181.1 873 1179.3 871.3 1177.5 869.3 1176.8L826.6 1173.7 839.1 1156.6 859.6 1158.1C861.7 1158.9 863.5 1157.2 863.9 1154.4 863.9 1152.7 862.2 1150.9 860.2 1150.1L844.2 1149.1 859.3 1126.5C861.1 1124.8 860.1 1122.7 858.4 1120.9 857.4 1120.5 855.6 1120.5 854.9 1120.8 854.2 1121.1 853.5 1121.5 853.1 1122.5L837.7 1144.4 830.7 1129.6C829.7 1127.5 826.9 1127.1 825.5 1127.8L825.5 1127.8C823.4 1128.8 822.7 1130.8 823.7 1132.9L832.6 1151.9 820 1169 802.1 1131.1C801.1 1128.9 799.1 1128.2 797 1129.2S794.1 1132.3 795.1 1134.4L815 1176.6 796.6 1203.3 784.6 1168.6 767.1 1200.9 753.2 1171.3 779.8 1133C781.3 1130.6 780.3 1128.5 778.9 1127.4 777.5 1126.3 775.1 1126.6 773.3 1128.3L749.2 1162.9 740.6 1144.6 752.1 1127.1C753.9 1125.4 753.6 1123 751.2 1121.5 749.8 1120.4 747.4 1120.7 745.6 1122.4L736.6 1136.1 725 1111.5C724 1109.4 721.9 1108.7 719.8 1109.7S717 1112.7 718 1114.8L729.6 1139.5 713.6 1138.4C712.6 1138 711.9 1138.4 711.2 1138.7 709.7 1139.4 709.4 1140.4 709 1141.4 708.6 1144.2 710.3 1146 712.7 1145.7L733.6 1147.9 742.5 1166.9 700.2 1162.8C699.5 1163.1 698.8 1163.5 698 1163.8 696.6 1164.4 696.3 1165.5 695.9 1166.5 695.5 1169.3 697.2 1171.1 699.6 1170.8L746.2 1174.6 760.1 1204.2 724.1 1197.1 743.2 1228.5 710.9 1225.7 691 1183.5C690 1181.3 687.2 1180.9 685.8 1181.6 683.7 1182.6 683 1184.7 683.9 1186.8L701.9 1224.8 680.7 1223.6 671.7 1204.6C670.7 1202.5 668.6 1201.7 666.5 1202.7S663.7 1205.8 664.7 1207.9L671.6 1222.7 644.9 1220.7C643.9 1220.3 643.2 1220.6 642.5 1221 641.7 1221.3 640.7 1222.6 640.6 1224.4 640.6 1226.1 641.6 1228.2 644 1227.9ZM739.5 1207.9L768.9 1213.8 783.1 1187.3 793.2 1216.1 822.8 1215 803.5 1237.9 818.9 1263.3 789.5 1257.4 775.3 1283.9 765.5 1255.8 735.6 1256.2 755.2 1234 739.5 1207.9Z" fill="rgba(167, 43, 183, 1)"></path><path d="M439.8 1237.7L399.8 1214.6 389.4 1174.9 429.1 1185.7 451.6 1225.9C451.6 1225.9 452 1226.3 452 1226.3 452.8 1227.1 454.4 1227.1 455.5 1226.7 457.1 1226 457.5 1224 456.3 1222.8L436.5 1187.7 455.7 1193 464.7 1208.3C464.7 1208.3 465.1 1208.7 465.1 1208.7 465.8 1209.5 467.4 1209.5 468.6 1209.1 470.2 1208.4 470.6 1206.4 469.4 1205.2L463.6 1194.6 477.7 1198.6C478.9 1199 480.8 1197.8 481.2 1196.6 482 1195.1 480.5 1193.5 479.3 1193.1L465.2 1189.1 475.8 1183.3C477.4 1182.5 477.8 1180.5 476.6 1179.3 475.9 1177.8 473.9 1177.4 472.7 1178.5L457.3 1187.5 438.5 1181.9 473.6 1162C475.2 1161.3 475.6 1159.3 474.4 1158.1 473.6 1156.5 471.7 1156.1 470.5 1157.3L430.3 1179.8 390.7 1169 420.3 1139.7 466.6 1140C468.2 1140 469.4 1138.8 469.4 1137.3 469.4 1135.7 468.2 1134.5 466.7 1134.5L425.8 1134.3 440 1120.2 457.3 1120.3C458.9 1120.3 460.1 1119.1 460.1 1117.6 460.1 1116 458.9 1114.8 457.4 1114.8L445.6 1114.7 456.6 1103.8C458.2 1103 457.8 1101 456.7 1099.9 455.5 1098.7 453.9 1098.7 452.7 1099.8L442.5 1110 442.5 1098.2C442.5 1096.6 441.4 1095.5 439.8 1095.4S437 1096.6 437 1098.2L436.9 1115.5 422.7 1129.5 422.9 1088.7C422.9 1087.1 421.8 1085.9 420.2 1085.9 418.6 1085.9 417.4 1087.1 417.4 1088.6L417.2 1135 387.9 1163.9 377.6 1124.2 400.2 1085.4C401 1083.8 400.2 1082.3 399 1081.1 397.4 1080.3 395.9 1081 394.7 1082.2L374.5 1117.1 369.5 1097.8 378.6 1082.5C379.4 1081 378.6 1079.4 377.4 1078.2 375.9 1077.4 374.3 1078.2 373.5 1079L367.5 1089.5 363.7 1075.4C363.3 1074.2 361.7 1072.6 360.2 1073.4 358.6 1074.2 357.4 1075.3 358.2 1076.9L362 1091.1 351.5 1085.1C349.9 1084.3 348.3 1085.1 347.5 1085.9 347.1 1087.1 347.1 1088.6 347.9 1089.4 347.9 1089.4 348.3 1089.8 348.3 1089.8L363.6 1098.9 368.6 1118.2 333.7 1098C332.1 1097.2 330.6 1098 329.8 1098.7 329.4 1099.9 329.4 1101.5 330.1 1102.3 330.1 1102.3 330.5 1102.7 330.5 1102.7L370.5 1125.7 380.9 1165.4 341.2 1154.6 318.7 1114.4C317.9 1112.8 315.9 1112.4 314.8 1113.6 313.2 1114.4 312.8 1116.3 314 1117.5L333.8 1152.6 314.6 1147.4 305.6 1132C304.8 1130.4 302.9 1130 301.7 1131.2 300.1 1132 299.7 1133.9 300.9 1135.1L306.7 1145.7 292.6 1141.7C291.4 1141.3 289.5 1142.5 289.1 1143.7 288.7 1144.9 289 1146 289.8 1146.8 290.2 1147.2 290.6 1147.6 291.4 1147.6L305.5 1151.6 294.9 1157.5C293.3 1158.2 292.9 1160.2 294.1 1161.4 294.1 1161.4 294.4 1161.8 294.4 1161.8 295.2 1162.6 296.8 1162.6 298 1162.2L313.4 1153.2 332.6 1158.5 297.5 1178.3C295.9 1179.1 295.5 1181 296.7 1182.2 296.7 1182.2 297.1 1182.6 297.1 1182.6 297.9 1183.4 299.4 1183.4 300.6 1183L340.8 1160.5 380.4 1171.3 351.2 1200.2 304.8 1199.9C303.3 1199.9 302.1 1201.1 302.1 1202.7 302.1 1204.3 303.2 1205.4 304.8 1205.4L345.3 1206.1 331 1220.1 313.8 1220C312.2 1220 311 1221.2 311 1222.8S312.2 1225.5 313.7 1225.5L325.5 1225.6 315.2 1235.8C314.1 1236.9 314 1238.5 315.2 1239.7 316.4 1240.9 318 1240.9 319.1 1239.7L329.4 1229.6 329.3 1241.3C329.3 1242.1 329.3 1242.9 330.1 1243.7S331.7 1244.5 332.5 1244.5C334 1244.5 335.2 1243.3 335.2 1241.8L335.3 1224.5 349.6 1210.4 349.3 1251.3C349.3 1252.1 349.3 1252.8 350.1 1253.6 350.5 1254 351.7 1254.4 352.4 1254.4 354 1254.4 355.2 1253.3 355.2 1251.7L355.5 1205.3 384.7 1176.4 395.1 1216.2 372.1 1256.1C371.7 1257.3 371.7 1258.9 372.5 1259.7 372.5 1259.7 372.8 1260.1 372.8 1260.1 374.4 1260.8 376 1260.1 376.8 1259.3L397 1224.4 402 1243.7 392.9 1259C392.5 1260.2 392.5 1261.7 393.3 1262.5 393.3 1262.5 393.6 1262.9 393.6 1262.9 395.2 1263.7 396.8 1262.9 397.6 1262.2L403.5 1251.6 407.4 1265.7C407.8 1266.1 407.8 1266.9 408.2 1267.3 408.9 1268.1 410.1 1268.5 411.3 1268.1 412.9 1267.4 414.1 1266.2 413.3 1264.6L409.4 1250.4 420 1256.4C421.6 1257.2 423.1 1256.4 423.9 1255.6 424.7 1254.1 424 1252.5 423.2 1251.7L407.9 1242.6 402.9 1223.3 437.8 1243.5C439.3 1244.3 440.9 1243.6 441.7 1242.8 441.7 1240.4 441.3 1238.4 439.8 1237.7Z" fill="rgba(167, 43, 183, 1)"></path><path d="M1217.7 1928.5L1253.2 1930.2 1261.7 1940 1249.7 1939.4C1248.4 1939 1247.6 1940.1 1247.2 1941.4 1247.3 1942.3 1248.3 1943.6 1249.3 1943.5L1265.8 1944.6 1274.4 1954 1261.9 1956.4 1248.1 1947.3C1248.1 1947.3 1247.7 1947.1 1247.7 1947.1 1246.8 1946.8 1245.7 1947.4 1245 1948.1 1244.6 1949.4 1244.7 1950.4 1245.9 1951.2L1255.9 1957.8 1243.4 1960.2 1213.6 1941.2C1213.6 1941.2 1213.3 1940.6 1213.3 1940.6 1212.5 1940.3 1211.4 1940.9 1210.7 1941.6 1209.8 1942.7 1210.2 1944.3 1211.5 1944.7L1237.3 1961.5 1222.2 1965 1210.6 1957.5C1210.6 1957.5 1210.6 1957.5 1210.2 1957.3 1209.3 1957.1 1208.4 1957.2 1207.7 1957.9 1207.3 1959.2 1207.3 1960.6 1208.4 1961.4L1216.2 1966.3 1205.1 1968.8C1203.7 1968.8 1203.2 1970 1203.4 1971 1203.4 1972.4 1204.5 1973.3 1206.1 1972.8L1217 1970.8 1211.9 1978C1211.5 1979.3 1211.5 1980.7 1212.7 1981.1 1213.9 1981.9 1214.8 1981.8 1215.7 1980.6L1223.2 1969.1 1238.2 1966 1221.2 1992.3C1220.5 1993 1221 1994.5 1222.1 1995.4 1222.9 1995.6 1224.3 1995.6 1225.2 1994.5L1244.3 1964.7 1256.7 1962.2 1250.2 1972.3C1249.4 1973.4 1249.9 1974.5 1251.1 1975.4 1251.8 1976 1253.3 1975.6 1254 1974.9L1262.8 1960.9 1275.4 1958 1271.4 1970.3 1256.8 1977.7C1255.7 1978.3 1255.3 1979.5 1255.9 1980.7 1256 1981.6 1257.7 1982.2 1258.8 1981.6L1269.5 1976.2 1265.5 1988.5 1233.7 2004.3C1232.6 2004.8 1232.1 2006.1 1232.7 2007.2 1233.3 2008.4 1234.6 2008.8 1235.7 2008.2L1263.6 1994.4 1258.9 2008.8 1246.5 2015C1245.4 2015.6 1245 2016.9 1245.6 2018 1246.1 2019.1 1247.4 2019.5 1248.5 2018.9L1256.8 2015.1 1253.4 2025.7C1252.9 2026.9 1253.5 2028 1254.8 2028.5 1256 2028.9 1257.2 2028.3 1257.6 2027L1261 2016.5 1265 2024.3C1265.6 2025.4 1266.8 2025.8 1268 2025.3S1269.5 2023.4 1268.9 2022.3L1263 2010.6 1267.8 1995.8 1281.7 2023.2C1282.3 2024.3 1283.6 2024.8 1284.7 2024.2 1285.8 2023.6 1286.2 2022.4 1285.7 2021.2L1269.7 1989.8 1273.7 1977.6 1279.1 1988.2C1279.7 1989.4 1281 1989.8 1282.1 1989.2 1283.2 1988.6 1283.6 1987.4 1283 1986.3L1275.6 1971.7 1279.5 1959.9 1287.7 1969.1 1287 1985.7C1287.1 1986.6 1288.1 1987.9 1289.1 1987.8 1290.5 1987.7 1291.2 1987 1291.6 1985.8L1292.2 1973.8 1300.4 1983 1298.7 2018.5C1298.7 2019.9 1299.4 2020.6 1300.7 2021 1302.1 2021 1302.9 2019.9 1303.2 2019L1305 1987.8 1315.2 1999.5 1314.6 2012.9C1314.1 2014.2 1315.3 2015 1316.5 2015.4 1317.5 2015.3 1318.8 2014.3 1318.8 2012.9L1319.3 2004.2 1326.9 2012.3C1327.5 2013.4 1328.9 2013.4 1330.1 2012.4 1330.8 2011.7 1330.8 2010.3 1330.1 2009.6L1322.6 2001 1331.8 2001.7C1333.2 2001.7 1334 2000.5 1333.9 1999.6 1334.3 1998.3 1333.6 1997.6 1332.7 1997.3 1332.3 1997.2 1332.3 1997.2 1331.9 1997L1318.5 1996.4 1308.3 1984.7 1339.1 1986.3C1340.4 1986.7 1341.2 1985.6 1341.6 1984.3 1341.5 1983.3 1340.8 1982.7 1339.9 1982.4 1339.5 1982.2 1339.5 1982.2 1339.5 1982.2L1303.8 1979.9 1295.6 1970.7 1307.5 1971.3C1308.9 1971.3 1309.6 1970.6 1310.1 1969.4 1309.9 1968.4 1309.3 1967.3 1308.5 1967 1308.1 1966.8 1308.1 1966.8 1307.7 1966.7L1291.1 1966 1282.9 1956.7 1294.9 1954.1 1308.9 1962.9C1310 1963.7 1311.6 1963.3 1312.3 1962.6 1312.7 1961.3 1312.7 1959.9 1311.4 1959.5L1301.4 1953 1313.6 1949.9 1343.6 1969.6C1344.4 1970.3 1345.9 1969.8 1346.6 1969.1 1347 1967.9 1347 1966.4 1345.9 1965.6L1320 1948.8 1335.1 1945.7 1346.2 1953.1C1347.3 1953.9 1348.9 1953.5 1349.3 1952.2 1350 1951.5 1350 1950.1 1348.9 1949.3L1341.1 1944.4 1352.2 1942C1353.2 1941.8 1354 1940.7 1354 1939.3 1353.7 1938.7 1353 1938 1352.2 1937.7 1352.2 1937.7 1351.7 1937.6 1351.3 1937.5L1340.2 1939.9 1345.1 1932.2C1345.8 1931.5 1345.4 1929.9 1344.7 1929.2 1344.2 1929.1 1344.2 1929.1 1344.2 1929.1 1343 1928.7 1341.8 1929.2 1341.6 1930.1L1334.2 1941.2 1319 1944.7 1336 1918.5C1336.4 1917.2 1336.3 1916.2 1335.2 1915.4 1335.2 1915.4 1334.7 1915.2 1334.7 1915.2 1333.9 1915 1332.9 1915.1 1332.1 1916.2L1312.6 1945.9 1300.5 1948.5 1307 1938.5C1307.5 1937.2 1307.5 1935.8 1306.2 1935.4 1306.3 1934.9 1305.9 1934.8 1305.9 1934.8 1305.1 1934.5 1303.9 1935.1 1303.2 1935.8L1294.5 1949.8 1282 1952.2 1285.8 1940.4 1300.4 1933C1301.5 1932.4 1302.1 1930.8 1301.5 1929.6 1300.8 1928.9 1299.5 1928.5 1298.6 1928.7L1287.8 1934.5 1291.8 1922.2 1323.1 1906.3C1324.3 1905.7 1324.7 1904.5 1324.1 1903.3 1323.5 1902.2 1322.3 1901.8 1321.2 1902.4L1293.7 1916.3 1298.5 1901.5 1310.3 1895.6C1311.4 1895 1311.8 1893.7 1311.3 1892.6S1309.4 1891.1 1308.3 1891.6L1300.5 1895.6 1303.9 1885.1C1304.3 1883.8 1303.7 1882.7 1302.5 1882.3 1301.2 1881.8 1300.1 1882.4 1299.7 1883.7L1296.2 1894.2 1291.8 1886.3C1291.5 1885.7 1291.2 1885.1 1290.8 1885 1290.4 1884.9 1289.4 1885 1288.9 1885.3 1287.7 1885.9 1287.3 1887.1 1287.9 1888.3L1294.3 1900.2 1289.5 1915 1275.1 1887.4C1274.8 1886.8 1274.5 1886.2 1274.1 1886.1 1273.7 1886 1272.7 1886.1 1272.1 1886.4 1271 1887 1270.6 1888.2 1271.2 1889.3L1287.5 1920.9 1283.5 1933.1 1278.3 1922.1C1278 1921.5 1277.1 1921.2 1276.7 1921.1 1276.3 1920.9 1275.9 1920.8 1275.3 1921.1 1274.2 1921.7 1273.6 1923.3 1274.3 1924L1281.6 1939 1277.8 1950.9 1269.1 1941.5 1270.3 1925.1C1270.1 1924.1 1269.6 1922.9 1268.7 1922.7 1268.3 1922.5 1268.3 1922.5 1268.2 1923 1266.9 1922.5 1265.6 1923.5 1265.6 1924.9L1265 1936.9 1256.4 1927.5 1258.7 1891.8C1258.5 1890.8 1257.8 1890.1 1257 1889.9 1256.6 1889.7 1256.6 1889.7 1256.6 1889.7 1255.2 1889.7 1254 1890.3 1254 1891.7L1252.3 1922.9 1242.1 1911.2 1242.7 1897.8C1242.7 1896.4 1242 1895.7 1241.1 1895.4 1241.1 1895.4 1240.7 1895.3 1240.7 1895.3 1239.3 1895.3 1238.5 1896.4 1238.2 1897.3L1238 1906.6 1230.5 1898C1230.1 1897.9 1229.6 1897.8 1229.2 1897.6 1228.8 1897.5 1227.8 1897.6 1227.2 1897.9 1226.4 1899.1 1226 1900.3 1227.1 1901.2L1234.6 1909.7 1225.5 1909C1224.1 1909 1223.2 1910.2 1223 1911 1223 1912.4 1224.1 1913.3 1225.4 1913.7L1238.7 1914.3 1249.1 1925.6 1218.3 1924C1216.9 1924 1215.6 1925 1215.8 1926 1215.8 1927.4 1216.3 1928.5 1217.7 1928.5Z" fill="rgba(51, 121, 194, 0.58)"></path><path d="M918.2 117.1L915.3 170.2 900.5 182.9 901.6 165C902.2 163.1 900.5 161.8 898.6 161.2 897.1 161.4 895.2 162.9 895.4 164.3L893.6 189 879.4 201.9 875.8 183.1 889.7 162.4C889.7 162.4 890 161.8 890 161.8 890.4 160.6 889.5 158.9 888.5 157.8 886.6 157.2 885.1 157.4 883.8 159.1L873.9 174.1 870.3 155.3 899.2 110.8C899.2 110.8 900 110.4 900 110.4 900.5 109.1 899.6 107.4 898.6 106.4 896.9 105.1 894.6 105.7 893.9 107.6L868.4 146.2 863.4 123.5 874.7 106.2C874.7 106.2 874.7 106.2 874.9 105.5 875.4 104.3 875.2 102.8 874.1 101.7 872.2 101.1 870.1 101.1 868.8 102.8L861.5 114.4 857.9 97.8C857.9 95.6 856 95 854.5 95.2 852.4 95.2 851.1 96.9 851.7 99.2L854.7 115.7 844 107.9C842.1 107.3 839.9 107.3 839.3 109.2 838.1 110.8 838.3 112.3 840 113.6L857.3 124.9 861.7 147.5 822.5 121.8C821.4 120.8 819.1 121.4 817.8 123.1 817.4 124.3 817.4 126.5 819.1 127.7L863.6 156.6 867.2 175.3 852.2 165.4C850.5 164.2 848.8 165 847.6 166.7 846.5 167.8 847.2 170.1 848.2 171.1L869.1 184.4 873.3 203.4 855 197.3 844 175.3C843.2 173.7 841.3 173 839.6 173.9 838.1 174.1 837.3 176.6 838.1 178.3L846.1 194.3 827.8 188.2 804.3 140.4C803.5 138.7 801.6 138.1 799.9 138.9 798.2 139.8 797.6 141.6 798.4 143.3L818.9 185.3 797.4 178.1 788.1 159.6C787.3 157.9 785.4 157.3 783.7 158.1 782 158.9 781.4 160.8 782.2 162.5L787.9 175 772.1 169.7C770.2 169.1 768.5 169.9 767.9 171.8 767.3 173.7 768.1 175.4 770 176L785.8 181.3 774 187.2C772.3 188 771.7 189.9 772.6 191.6S775.3 194 777 193.1L794.7 184.2 816.8 191.6 775.5 212.3C773.8 213.1 773.2 215 774 216.7 774.9 218.4 776.8 219 778.5 218.2L825.7 194.5 844 200.6 828 208.7C826.3 209.5 825.7 211.4 826.5 213.1 827.4 214.8 829.3 215.4 831 214.6L852.9 203.6 870.6 209.5 856.7 221.7 831.8 220.5C830.3 220.7 828.4 222.2 828.7 223.6 828.7 225.7 829.7 226.8 831.6 227.4L849.5 228.5 835.6 240.7 782.5 237.8C780.4 237.8 779.3 238.9 778.7 240.7 778.7 242.9 780.4 244.1 781.7 244.5L828.5 247.5 810.8 262.6 790.7 261.6C788.8 261 787.6 262.7 786.9 264.6 787.2 266 788.6 267.9 790.7 267.9L803.8 268.8 791.6 280.2C789.9 281 789.9 283.1 791.4 285 792.4 286.1 794.6 286.1 795.6 285L808.5 273.8 807.4 287.5C807.4 289.6 809.1 290.9 810.6 290.7 812.5 291.3 813.5 290.3 814 289 814.2 288.4 814.2 288.4 814.4 287.7L815.4 267.7 833.1 252.5 830.4 298.7C829.8 300.6 831.5 301.8 833.4 302.5 834.8 302.3 835.9 301.2 836.3 299.9 836.5 299.3 836.5 299.3 836.5 299.3L840.3 245.8 854.2 233.5 853.1 251.4C853.1 253.6 854.2 254.6 856.1 255.2 857.6 255 859.2 254.2 859.7 252.9 859.9 252.3 859.9 252.3 860.1 251.6L861.3 226.8 875.2 214.5 879 232.7 865.8 253.5C864.5 255.2 865.2 257.5 866.2 258.6 868.1 259.2 870.2 259.2 870.8 257.3L880.7 242.4 885.2 260.7 855.5 305.6C854.4 306.7 855.1 309 856.1 310 858 310.7 860.1 310.7 861.4 309L886.9 270.4 891.3 292.9 880.2 309.6C878.9 311.3 879.5 313.6 881.4 314.2 882.5 315.3 884.6 315.3 885.9 313.6L893.2 302 896.8 318.7C897 320.1 898.7 321.4 900.8 321.4 901.7 321 902.7 319.9 903.1 318.7 903.1 318.7 903.4 318 903.6 317.4L900 300.7 911.6 308.1C912.6 309.2 914.9 308.5 916 307.5 916.2 306.8 916.2 306.8 916.2 306.8 916.8 304.9 916 303.3 914.7 302.8L898.1 291.7 893 268.9 932.2 294.6C934.1 295.2 935.6 295 936.9 293.3 936.9 293.3 937.1 292.7 937.1 292.7 937.5 291.4 937.3 290 935.6 288.7L891.3 259.2 887.5 241.1 902.5 251C904.4 251.6 906.5 251.6 907.1 249.7 907.7 249.9 907.9 249.3 907.9 249.3 908.4 248 907.5 246.3 906.5 245.3L885.6 232 882 213.3 899.7 219.2 910.7 241.1C911.5 242.8 914.1 243.6 915.7 242.7 916.8 241.7 917.4 239.8 917.2 238.3L908.6 222.1 926.9 228.2 950.6 275.4C951.4 277.1 953.3 277.7 955 276.9 956.7 276 957.3 274.1 956.5 272.4L935.8 231.1 957.9 238.5 966.8 256.2C967.6 257.9 969.5 258.5 971.2 257.7S973.5 254.9 972.7 253.2L966.8 241.4 982.6 246.7C984.5 247.3 986.2 246.5 986.8 244.6 987.4 242.7 986.6 241 984.7 240.4L968.9 235.1 980.9 228.6C981.7 228.2 982.6 227.7 982.8 227.1 983 226.5 982.8 225 982.3 224.1 981.5 222.5 979.6 221.8 977.9 222.7L960 232.2 937.9 224.8 979.4 203.5C980.2 203.1 981.1 202.6 981.3 202 981.5 201.4 981.3 199.9 980.8 199.1 980 197.4 978.1 196.7 976.4 197.6L929 221.9 910.7 215.8 927.3 208C928.2 207.5 928.6 206.3 928.8 205.6 929 205 929.2 204.4 928.8 203.5 927.9 201.8 925.4 201 924.4 202.1L901.8 212.8 884.1 206.9 898.2 194.1 922.9 195.9C924.3 195.7 926 194.9 926.5 193.6 926.7 193 926.7 193 926 192.8 926.7 190.9 925.2 189 923.1 189L905.2 187.9 919.3 175.1 972.8 178.8C974.3 178.6 975.3 177.6 975.8 176.3 976 175.7 976 175.7 976 175.7 976 173.6 975.1 171.9 973 171.9L926.2 169 943.9 153.8 963.9 154.8C966.1 154.8 967.1 153.7 967.5 152.5 967.5 152.5 967.7 151.8 967.7 151.8 967.7 149.7 966.1 148.5 964.8 148.1L950.9 147.6 963.7 136.5C963.9 135.8 964.1 135.2 964.4 134.6 964.6 133.9 964.4 132.5 963.9 131.6 962.2 130.3 960.3 129.7 959.1 131.4L946.2 142.6 947.3 128.9C947.3 126.8 945.6 125.5 944.3 125.1 942.2 125.1 940.9 126.8 940.3 128.7L939.3 148.7 922.2 164.1 924.9 117.9C924.9 115.8 923.4 113.9 922 114.1 919.9 114.1 918.2 115 918.2 117.1Z" fill="rgba(51, 121, 194, 0.58)"></path><path d="M1157.7 526.9L1142.3 553.9 1132.2 538.1C1131.3 536.3 1128.6 535.5 1125.9 536.5 1124.2 538.3 1123.3 541 1125.2 542.7L1137.1 562.9 1126 584.5 1101.1 542.3C1099.3 540.6 1096.7 539.7 1094.9 540.6 1092.3 542.5 1091.4 545.2 1093.2 546.9L1120.9 593.5 1102.9 625.8 1085.2 587.1 1069.1 626.5 1049.8 594.9 1075.5 547.3C1076.4 547.3 1076.3 546.4 1076.3 545.5 1076.3 543.7 1075.4 541.9 1073.6 541.1 1071.8 540.2 1069.1 541.2 1067.4 543L1044.3 586.1 1032.3 565.1 1043.4 544.4C1044.3 543.5 1044.3 542.6 1044.2 541.7 1044.2 540.8 1043.3 539 1041.5 538.2 1039.7 537.3 1037.1 538.3 1036.2 540.1L1026.8 556.3 1010.2 529.9C1009.3 527.3 1006.6 527.4 1004 528.3 1002.2 529.2 1001.4 531.9 1003.2 534.5L1018.8 560.9 1000.2 561.3C997.5 561.3 995.8 564 995.8 565.8 995.9 568.5 997.7 570.2 1000.4 570.2L1024.4 569.7 1036.4 590.8 988.4 591.7C985.7 591.8 984 593.6 984 596.3 984.1 598.1 985.9 600.7 988.5 600.6L1041.9 599.5 1061.2 631.1 1019.3 627.6 1044.9 660.8 1007.6 661.6 980 615.9C978.1 613.3 975.5 613.3 973.7 614.3 972 615.2 971.1 617.9 972.1 620.5L997.8 661.8 973.8 662.3 961 642.1C960 639.4 957.3 638.6 954.7 640.4 952.9 641.4 952.1 644.1 953.9 646.7L963.2 662.5 932 663.1C929.4 663.2 927.6 665 927.7 667.7S929.6 672.1 932.2 672L963.3 671.4 954.8 687.6C953.1 690.3 954 692.9 955.8 693.8 958.5 695.5 961.1 694.5 962 691.9L974 671.2 998 670.7 974 713C973.1 715.6 974.1 718.3 975.9 719.1 978.6 720.9 981.2 719.9 982.1 717.2L1007.8 670.5 1045.1 669.7 1020.9 704 1062.6 698.7 1044.6 731.1 991.3 732.2C988.6 732.2 986.9 734.9 986.9 736.7 987 739.4 988.8 741.1 991.4 741L1040.3 740 1028.3 761.6 1004.3 762.1C1001.7 762.2 999.9 764 1000 766.7 1000 768.4 1001.8 771.1 1004.5 771L1023.2 770.6 1008.6 797.6C1006.9 800.3 1007.8 802.9 1010.5 803.8 1012.3 804.6 1015 804.6 1015.8 801.9L1031.3 774.9 1041.4 790.7C1042.3 792.5 1045 793.3 1046.7 792.4 1048.5 791.4 1049.3 789.6 1049.3 788.8 1049.3 787.9 1049.3 787 1048.4 786.1L1036.4 765.9 1047.5 744.3 1072.4 786.5C1074.2 788.2 1076.9 789.1 1078.7 788.1 1080.4 787.2 1081.3 785.4 1081.2 783.6 1081.2 782.8 1081.2 782.8 1080.3 781.9L1052.7 735.3 1070.7 703 1088.4 741.7 1104.4 702.3 1123.8 733.9 1098.1 781.5C1097.2 783.3 1097.3 786 1100 787.7 1101.8 788.6 1104.4 787.6 1106.2 785.8L1129.3 742.6 1141.3 763.7 1130.1 784.4C1128.4 786.2 1129.3 788.9 1132 790.6 1133.8 791.5 1136.5 790.5 1138.2 788.7L1146.8 772.5 1163.3 798.8C1164.3 801.5 1166.9 801.4 1169.6 800.5 1170.5 799.6 1171.3 797.8 1171.3 796.9 1171.3 796 1171.3 795.1 1170.4 794.3L1154.7 767.9 1173.4 767.5C1176 767.5 1177.7 764.8 1177.7 763L1177.7 763C1177.7 760.3 1175.8 758.6 1173.2 758.6L1149.2 759.1 1137.2 738 1185.2 737.1C1187.8 737 1189.6 735.2 1189.5 732.5S1187.7 728.1 1185 728.2L1131.7 729.3 1112.4 697.7 1154.2 701.2 1128.6 668 1166 667.2 1193.6 712.9C1195.4 715.5 1198.1 715.4 1199.8 714.5 1201.6 713.6 1202.4 710.9 1201.5 708.3L1176.6 667 1199.7 666.5 1212.6 686.7C1213.5 689.3 1216.2 690.2 1218.8 688.3 1220.6 687.4 1221.4 684.7 1220.5 682.1L1210.4 666.3 1241.5 665.7C1244.2 665.6 1245.9 663.8 1245.8 661.1S1244 656.7 1241.3 656.8L1210.2 657.4 1218.8 641.2C1219.6 640.3 1219.6 639.4 1219.6 638.5 1219.6 636.8 1218.7 635.9 1217.8 635 1215 633.3 1212.4 634.2 1211.6 636.9L1199.5 657.6 1175.6 658.1 1199.6 615.8C1199.6 615 1199.5 614.1 1199.5 613.2 1199.5 611.4 1198.6 610.5 1197.7 609.7 1195 607.9 1192.3 608.9 1191.5 611.6L1165.8 658.3 1128.4 659.1 1152.6 624.8 1111 630.1 1129 597.7 1182.3 596.6C1185 596.6 1186.7 593.9 1186.6 592.1 1186.6 589.4 1184.8 587.7 1182.1 587.8L1134.1 588.7 1145.2 567.2 1169.2 566.7C1171.9 566.6 1173.6 564.8 1173.6 562.1S1171.7 557.7 1169 557.8L1150.4 558.2 1164.9 531.2C1165.8 530.3 1165.8 529.4 1165.8 528.5 1165.8 527.6 1164.8 525.9 1163 525 1161.2 524.2 1158.6 524.2 1157.7 526.9ZM1134.2 635.9L1114.3 663.8 1135.3 691 1100.6 688.1 1087.9 719.5 1073 688.7 1039.4 692.9 1059.2 665 1038.2 637.8 1072.1 640.7 1085.6 609.3 1099.6 640.1 1134.2 635.9Z" fill="rgba(51, 121, 194, 0.58)"></path><path d="M1426.5 673.5L1418.8 687 1413.7 679.1C1413.3 678.2 1411.9 677.8 1410.6 678.3 1409.7 679.2 1409.3 680.5 1410.2 681.4L1416.2 691.5 1410.6 702.3 1398.2 681.2C1397.3 680.3 1396 679.9 1395.1 680.4 1393.8 681.3 1393.4 682.6 1394.3 683.5L1408.1 706.8 1399.1 723 1390.2 703.6 1382.2 723.3 1372.5 707.5 1385.4 683.7C1385.8 683.7 1385.8 683.2 1385.8 682.8 1385.8 681.9 1385.3 681 1384.4 680.6 1383.5 680.1 1382.2 680.6 1381.3 681.5L1369.8 703.1 1363.8 692.5 1369.3 682.2C1369.8 681.8 1369.8 681.3 1369.8 680.9 1369.8 680.4 1369.3 679.5 1368.4 679.1 1367.5 678.7 1366.2 679.2 1365.7 680.1L1361 688.2 1352.8 675C1352.3 673.7 1350.9 673.7 1349.6 674.2 1348.7 674.6 1348.3 676 1349.2 677.3L1357.1 690.5 1347.7 690.6C1346.4 690.7 1345.5 692 1345.6 692.9 1345.6 694.2 1346.5 695.1 1347.8 695.1L1359.8 694.8 1365.8 705.4 1341.8 705.9C1340.5 705.9 1339.6 706.8 1339.6 708.1 1339.7 709 1340.6 710.3 1341.9 710.3L1368.6 709.8 1378.2 725.6 1357.3 723.8 1370.1 740.4 1351.4 740.8 1337.6 718C1336.7 716.6 1335.4 716.7 1334.5 717.1 1333.6 717.6 1333.2 718.9 1333.7 720.3L1346.5 740.9 1334.5 741.1 1328.1 731C1327.6 729.7 1326.3 729.3 1325 730.2 1324.1 730.7 1323.7 732 1324.6 733.3L1329.2 741.2 1313.6 741.5C1312.3 741.6 1311.4 742.5 1311.4 743.8S1312.4 746 1313.7 746L1329.3 745.7 1325 753.8C1324.1 755.1 1324.6 756.4 1325.5 756.9 1326.8 757.7 1328.2 757.3 1328.6 755.9L1334.6 745.6 1346.6 745.3 1334.6 766.5C1334.2 767.8 1334.6 769.1 1335.5 769.6 1336.9 770.4 1338.2 770 1338.6 768.6L1351.5 745.2 1370.1 744.9 1358 762 1378.9 759.4 1369.9 775.5 1343.2 776.1C1341.9 776.1 1341 777.5 1341 778.3 1341.1 779.7 1342 780.5 1343.3 780.5L1367.7 780 1361.7 790.8 1349.7 791.1C1348.4 791.1 1347.5 792 1347.6 793.3 1347.6 794.2 1348.5 795.5 1349.8 795.5L1359.1 795.3 1351.9 808.8C1351 810.2 1351.5 811.5 1352.8 811.9 1353.7 812.3 1355 812.3 1355.5 811L1363.2 797.5 1368.2 805.4C1368.7 806.2 1370 806.7 1370.9 806.2 1371.8 805.7 1372.2 804.8 1372.2 804.4 1372.2 804 1372.2 803.5 1371.8 803.1L1365.8 793 1371.3 782.2 1383.8 803.3C1384.7 804.1 1386 804.6 1386.9 804.1 1387.8 803.6 1388.2 802.7 1388.2 801.9 1388.2 801.4 1388.2 801.4 1387.7 801L1373.9 777.7 1382.9 761.5 1391.8 780.9 1399.8 761.2 1409.5 777 1396.6 800.8C1396.2 801.7 1396.2 803 1397.5 803.9 1398.4 804.3 1399.8 803.8 1400.6 802.9L1412.2 781.4 1418.2 791.9 1412.6 802.3C1411.8 803.2 1412.2 804.5 1413.6 805.4 1414.5 805.8 1415.8 805.3 1416.7 804.4L1421 796.3 1429.2 809.5C1429.7 810.8 1431 810.8 1432.4 810.3 1432.8 809.9 1433.2 809 1433.2 808.5 1433.2 808.1 1433.2 807.6 1432.7 807.2L1424.9 794 1434.2 793.8C1435.6 793.8 1436.4 792.4 1436.4 791.6L1436.4 791.6C1436.4 790.2 1435.5 789.4 1434.2 789.4L1422.2 789.6 1416.2 779.1 1440.2 778.6C1441.5 778.6 1442.4 777.7 1442.3 776.3S1441.4 774.1 1440.1 774.2L1413.4 774.7 1403.8 758.9 1424.7 760.7 1411.9 744 1430.6 743.7 1444.4 766.5C1445.3 767.8 1446.6 767.8 1447.5 767.3 1448.4 766.9 1448.8 765.5 1448.3 764.2L1435.9 743.6 1447.5 743.3 1453.9 753.4C1454.4 754.8 1455.7 755.2 1457 754.3 1457.9 753.8 1458.3 752.4 1457.8 751.1L1452.8 743.2 1468.4 742.9C1469.7 742.9 1470.6 742 1470.5 740.6S1469.6 738.4 1468.3 738.5L1452.7 738.8 1457 730.7C1457.4 730.2 1457.4 729.8 1457.4 729.4 1457.4 728.5 1456.9 728 1456.5 727.6 1455.1 726.7 1453.8 727.2 1453.4 728.5L1447.4 738.9 1435.4 739.1 1447.4 718C1447.4 717.5 1447.4 717.1 1447.4 716.7 1447.4 715.8 1446.9 715.3 1446.5 714.9 1445.1 714 1443.8 714.5 1443.4 715.9L1430.5 739.2 1411.8 739.6 1423.9 722.5 1403.1 725.1 1412.1 708.9 1438.8 708.4C1440.1 708.4 1441 707 1440.9 706.1 1440.9 704.8 1440 703.9 1438.7 703.9L1414.7 704.4 1420.2 693.6 1432.2 693.4C1433.6 693.4 1434.5 692.5 1434.4 691.1S1433.5 688.9 1432.2 689L1422.8 689.1 1430.1 675.7C1430.6 675.2 1430.5 674.8 1430.5 674.3 1430.5 673.9 1430.1 673 1429.2 672.6 1428.3 672.1 1426.9 672.2 1426.5 673.5ZM1414.7 728L1404.8 742 1415.3 755.5 1397.9 754.1 1391.5 769.8 1384.1 754.4 1367.3 756.5 1377.2 742.5 1366.7 728.9 1383.6 730.4 1390.4 714.7 1397.4 730.1 1414.7 728Z" fill="rgba(51, 121, 194, 0.58)"></path></g><defs><mask id="SvgjsMask2030"><rect width="1440" height="2000" fill="#ffffff"></rect></mask><linearGradient x1="-9.72%" y1="7%" x2="109.72%" y2="93%" gradientUnits="userSpaceOnUse" id="SvgjsLinearGradient2031"><stop stop-color="rgba(255, 255, 255, 1)" offset="0.15"></stop><stop stop-color="rgba(0, 51, 117, 1)" offset="0.85"></stop></linearGradient><filter id="SvgjsFilter2032"><feGaussianBlur stdDeviation="1"></feGaussianBlur></filter></defs></svg>