<svg xmlns="http://www.w3.org/2000/svg" version="1.1" xmlns:xlink="http://www.w3.org/1999/xlink" xmlns:svgjs="http://svgjs.dev/svgjs" width="1400" height="800" preserveAspectRatio="none" viewBox="0 0 1400 800"><g mask="url(&quot;#SvgjsMask3778&quot;)" fill="none"><rect width="1400" height="800" x="0" y="0" fill="url(&quot;#SvgjsLinearGradient3779&quot;)"></rect><path d="M -371.4661163606896,326 C -331.47,351 -251.47,446 -171.46611636068965,451 C -91.47,456 -51.47,342.6 28.533883639310346,351 C 108.53,359.4 148.53,498 228.53388363931035,493 C 308.53,488 348.53,333.6 428.5338836393104,326 C 508.53,318.4 548.53,475.6 628.5338836393104,455 C 708.53,434.4 748.53,181.6 828.5338836393104,223 C 908.53,264.4 948.53,688.6 1028.5338836393103,662 C 1108.53,635.4 1154.24,85.6 1228.5338836393103,90 C 1302.83,94.4 1365.71,565.2 1400,684" stroke="rgba(51, 121, 194, 0.58)" stroke-width="2"></path><path d="M -204.93298039364717,679 C -164.93,581.4 -84.93,224.2 -4.932980393647179,191 C 75.07,157.8 115.07,491.4 195.06701960635283,513 C 275.07,534.6 315.07,284.2 395.0670196063528,299 C 475.07,313.8 515.07,600 595.0670196063528,587 C 675.07,574 715.07,226 795.0670196063528,234 C 875.07,242 915.07,653.4 995.0670196063528,627 C 1075.07,600.6 1115.07,139.2 1195.067019606353,102 C 1275.07,64.8 1354.08,395.4 1395.067019606353,441 C 1436.05,486.6 1399.01,352.2 1400,330" stroke="rgba(51, 121, 194, 0.58)" stroke-width="2"></path><path d="M -80.34865494020687,95 C -40.35,165.4 39.65,411.6 119.65134505979313,447 C 199.65,482.4 239.65,254.6 319.65134505979313,272 C 399.65,289.4 439.65,509.2 519.6513450597931,534 C 599.65,558.8 639.65,358.8 719.6513450597931,396 C 799.65,433.2 839.65,782 919.6513450597931,720 C 999.65,658 1039.65,88.8 1119.6513450597931,86 C 1199.65,83.2 1239.65,688.4 1319.6513450597931,706 C 1399.65,723.6 1503.58,193.2 1519.6513450597931,174 C 1535.72,154.8 1423.93,522.8 1400,610" stroke="rgba(51, 121, 194, 0.58)" stroke-width="2"></path><path d="M -106.90428217480266,363 C -66.9,409.4 13.1,612.4 93.09571782519734,595 C 173.1,577.6 213.1,268 293.0957178251973,276 C 373.1,284 413.1,624.2 493.0957178251973,635 C 573.1,645.8 613.1,362 693.0957178251973,330 C 773.1,298 813.1,465.4 893.0957178251973,475 C 973.1,484.6 1013.1,331.4 1093.0957178251974,378 C 1173.1,424.6 1213.1,744.2 1293.0957178251974,708 C 1373.1,671.8 1471.71,221.2 1493.0957178251974,197 C 1514.48,172.8 1418.62,509 1400,587" stroke="rgba(51, 121, 194, 0.58)" stroke-width="2"></path><path d="M -328.21884855621954,141 C -288.22,225.4 -208.22,530 -128.2188485562195,563 C -48.22,596 -8.22,336.8 71.78115144378049,306 C 151.78,275.2 191.78,439.2 271.78115144378046,409 C 351.78,378.8 391.78,96.6 471.78115144378046,155 C 551.78,213.4 591.78,660.4 671.7811514437805,701 C 751.78,741.6 791.78,388.2 871.7811514437805,358 C 951.78,327.8 991.78,586.2 1071.7811514437806,550 C 1151.78,513.8 1206.14,196.6 1271.7811514437806,177 C 1337.42,157.4 1374.36,397 1400,452" stroke="rgba(51, 121, 194, 0.58)" stroke-width="2"></path><path d="M -214.62051311950682,171 C -174.62,250.2 -94.62,569.6 -14.620513119506828,567 C 65.38,564.4 105.38,170.6 185.37948688049318,158 C 265.38,145.4 305.38,488 385.3794868804932,504 C 465.38,520 505.38,243.2 585.3794868804931,238 C 665.38,232.8 705.38,483.6 785.3794868804931,478 C 865.38,472.4 905.38,192 985.3794868804931,210 C 1065.38,228 1105.38,532 1185.3794868804932,568 C 1265.38,604 1342.46,395.8 1385.3794868804932,390 C 1428.3,384.2 1397.08,509.2 1400,539" stroke="rgba(51, 121, 194, 0.58)" stroke-width="2"></path></g><defs><mask id="SvgjsMask3778"><rect width="1400" height="800" fill="#ffffff"></rect></mask><linearGradient x1="10.71%" y1="-18.75%" x2="89.29%" y2="118.75%" gradientUnits="userSpaceOnUse" id="SvgjsLinearGradient3779"><stop stop-color="rgba(255, 255, 255, 1)" offset="0.27"></stop><stop stop-color="rgba(160, 34, 146, 1)" offset="1"></stop></linearGradient></defs></svg>